<svg xmlns="http://www.w3.org/2000/svg" width="280" height="263" viewBox="0 0 280 263">
    <g fill="none" fill-rule="evenodd">
        <g>
            <g>
                <g>
                    <g>
                        <path fill="#00386C" d="M173.58 259.91c4.1-1.45 8.094-1.345 12.398.41-4.01 2.319-7.69 2.288-12.399-.41zm46.419-8.225c.374 1.254-.743 1.38-1.37 1.674-5.16 2.43-10.474 4.385-16.053 5.471-.964.189-1.737.017-2.365-.444-.118.09-.242.157-.372.192-3.732.998-7.51 1.777-11.327 1.111-.147-.025-.232-.32-.468-.671 4.345-2.333 8.92-2.009 13.432-2.175-.038.046-.076.093-.113.142l8.336-2.37zM167.317.449c.285-.127.883.126 1.145.389 1.633 1.62 3.457 1.007 5.388.372 1.569-.518 3.238-1.52 5.084.076-1.294 1.074-2.511 2.084-3.726 3.095.353-.062.706-.12 1.06-.18l-.158.836-.915-.593c-3.562.792-3.562.792-7.027-.869-.233.557-.49 1.09-.677 1.642-.132.39-.173.809-.3 1.457-.328.12-.669.248-1 .37.233.012.47.03.703.04l-.326.146.077.092c-.092.003-.185.002-.277 0l-1.996.897c.096-.27.214-.463.34-.626L159.291 9.6c-.044.09-.09.172-.139.244 1.118.338 2.217.83 3.368.916 2.976.225 5.977.239 8.967.345.64.024 1.521.372 1.875.077 3.974-3.347 7.712-.651 11.531-.31.424.038.885.005 1.26.15 1.751.672 3.297 1.12 3.192 3.839-.038.977.534 1.964 1.24 2.927.828.173 1.655.347 2.48.514.055 1.066-.364 1.395-.85 1.6l.004.005c.413.566 1.399.709 2.17 1.07.876-2.925 1.454-3.552 3.241-3.037 3.236.93 6.398 2.07 9.59 3.136.394.134.983.23 1.114.52 1.507 3.356 5.186 4.55 7.274 7.296.6.794 1.05 1.774 1.3 2.75.25.962.379 1.958.502 2.927 1.503.598 2.963 1.283 4.401 2.018.113-.117.212-.238.258-.375.465-1.387.75-2.837 1.343-4.168.162-.36 1.049-.438 1.663-.62 1.039 1.524 2.426 2.882 2.163 5.017-.819.822-1.452 1.461-1.917 2.02 1.275.71 2.53 1.462 3.77 2.244l.057-.149c.012.07.021.137.034.206 2.93 1.853 5.792 3.853 8.685 5.773 1.389.921 2.806 1.922 3.906 3.186 6.7 7.714 14.599 14.209 20.57 22.662 1.96 2.774 3.9 5.557 5.837 8.317-1.008 1.382-2.083.736-2.709.02-1.81-2.074-3.641-4.184-5.088-6.539-2.385-3.882-4.994-7.5-8.35-10.494-.788-.704-1.584-1.46-2.156-2.352-3.905-6.06-10.201-8.687-15.746-12.39-.494-.33-1.21-.5-1.788-.427-.727.093-.987.457-.977.94l-.799.31c.091.372.195.737.31 1.096.228-.171.456-.373.684-.54 3.989 2.774 7.806 5.751 10.615 9.94.24.357.473.747.792 1.007 8.294 6.785 12.437 16.668 17.346 25.976.202.382.255.88.517 1.188 4.391 5.12 5.438 11.572 6.536 18.024.25 1.47.832 2.877 1.253 4.278-.647.791-1.822 1.572-1.791 2.3.149 3.473.412 6.974 1.034 10.384.04.215.065.43.1.645 1.335 5.653 2.49 11.362 3.533 17.089.347 1.903-.224 4.02-.43 6.052-.52-1.255-1.307-2.48-1.372-3.78-.16-3.175-.608-6.266-1.244-9.304-.079 1.656-.212 3.312-.384 4.972-.337 3.228-1 6.459-.963 9.682.071 6.149-2.253 11.708-3.442 17.531l.09-.043.009.381-.147-.11c-.09.452-.174.904-.248 1.359-.372 2.294-2.479 4.024-2.096 6.58 1.756.587 2.683-.87 3.065-1.715 1.922-4.277 5.61-7.599 6.111-12.638.063-.632.23-1.342.576-1.84.376-.54.707-1.089 1-1.644-.146-1.68-.275-3.362-.287-5.05-.005-1.344.491-2.72.801-4.084.634 1.366 1.021 2.751 1.18 4.156.755-3.975.417-8.157.529-12.254.012-.436-.03-.874.016-1.303.02-.192.198-.364.316-.57 1.281-.355 1.985.356 2.1 1.583.474 5.072-.304 10.021-1.645 14.853-1.107 3.978-2.433 7.89-3.776 11.792-.484 1.411-1.14 2.817-1.984 4.016-2.454 3.492-5.318 6.657-6.886 10.812-.333.888-1.34 1.82-2.213 2.088-2.334.713-3.125 2.73-3.976 4.683-.156.358-.282.697-.391 1.024.61 2.047 2.525 3.713 1.428 6.604-.632 1.669-1.124 3.15-2.895 4.128-.757.418-1.058 1.73-1.546 2.645-1.222 2.296-2.089 4.874-3.73 6.83-2.546 3.033-3.625 6.91-6.685 9.651-1.924 1.724-5.886 3.98-8.568 5.05-.277.28-.62.51-1.004.672-1.598.667-3.063 1.581-4.444 2.627.244.046.495.151.636.287.258.25.495.844.36 1.118-.565 1.137-1.057 2.459-1.974 3.256-2.112 1.837-4.076 3.89-6.756 5.04-1.538.66-2.899 1.77-4.51 2.785l-1.389-1.683c-.4-.076-.843-.313-1.21-.208-3.505.994-7.008 2.002-10.484 3.117-.584.187-1.186.831-1.29 1.436-.176 1.038.641 1.363 1.564 1.5.374.06.701.343 1.281.644-2.413 1.843-5.86 1.537-7.69 4.322-.278.427-2.6-.414-2.897.023-1.702 2.495-3.937 1.686-6.164 1.975-2.01.26-3.883 1.974-5.92 2.417-1.809.395-3.933-.626-5.607-.03-2.049.732-3.797.393-5.682.24-5.52-.447-11.999 1.756-17.896 1.285l-1.303 4.596c-.952-.01-2.013.132-2.986-.064-1.659-.334-3.327-.732-4.87-1.37-1.993-.824-3.202.466-4.537 1.516-2.861-.219-5.362-1.143-7.09-3.257-2.086 1.04-.372 2.52-1.06 3.593-.404.106-.907.413-1.206.287-1.541-.646-3.1-1.245-4.67-1.806-2.97.57-6.106.212-10.325.328 1.867-.698 3.612-1.354 5.286-1.983-3.496-1.051-7.05-1.938-10.653-2.704-1.329-.281-2.704-.731-3.825-1.443-2.42-1.536-4.863-3.034-7.404-4.352l-1.059.004c-1.266.01-2.21-.256-2.992-1.688-.453-.83-2.06-1.162-3.2-1.327-4.085-.586-7.248-3.536-11.328-4.16-2.855-.44-5.73-1.072-7.671-3.734l-.083.088.002-.002-.01.009-.336-.192.4.09c.619-1.055 1.242-2.118 2.043-3.477.744 0 1.776-.182 2.728.034 1.845.415 3.7.813 5.538 1.265-.283-.322-.565-.644-.845-.967-2.265-1.022-4.396-2.331-6.396-3.834l-.005.163c-.765.04-1.65.366-2.27.07-1.133-.547-2.145-1.382-3.195-2.132 1.408.3 2.816.602 4.225.904-2.7-2.202-5.067-4.719-7.24-7.409l-.042.004c-.017-.029-.037-.05-.055-.077l-.357-.064c-1.376-.26-2.682-.693-3.873-1.406l-.03.039c.05.042.101.083.151.128-.134.016-.26.016-.395.035l.125-.012-.007.01-.001-.008-.117.01.176-.223c.018.018.037.034.056.05l.038-.032c-.556-.332-1.086-.725-1.588-1.19 2.032-.242 3.77.256 5.113 1.74-.66-.846-1.306-1.707-1.937-2.578l-4.427-1.633c.538.66.943 1.44 1.075 2.461-.945.779-1.087 1.817-.283 2.676.989 1.056 2.184 1.916 3.363 2.744 1.811 1.271 3.682 2.448 5.53 3.66-1.545.134-3.095.27-4.772.417-4.158-2.772-6.223-8.155-11.58-11.431.94 3.54.58 6.192 2.505 8.522.68.821.218 2.794.065 4.215-.035.332-.931.559-1.79 1.029-.335-.961-.72-1.678-.82-2.435-.303-2.28-1.096-4.017-3.364-4.844-.536-.195-.772-1.324-1.129-2.073-1.466-.71-2.692-1.382-3.206-3.437-1.202-4.834-2.408-9.7-4.745-14.142-.98-1.864-1.435-3.861-3.388-5.27-1.29-.93-1.86-3.268-2.346-5.097-1.168-4.409-2.16-8.875-3.102-13.346-.66-3.14-1.376-6.298-.09-9.439-.334-.907-.655-1.817-.967-2.732l-.215.097-.22-1.4c-.339-1.044-.657-2.095-.948-3.152-1.402 1.532-1.518 2.008-1.536 8.07-.01 3.256.529 6.518.874 9.77.315 2.964.706 5.916 1.109 9.248-.868.269-1.852.92-2.683.742-1.082-.226-1.485-1.437-1.238-2.622 1.2-5.73-1.071-11.238-1-16.902.009-.753-.755-1.491-1.038-2.285-.565-1.596-1.046-3.227-1.556-4.84-1.402-1.371-.826-3.187-.878-4.835-.133-4.148-.225-8.229-1.882-12.184-1.355-3.232-.36-9.021 1.861-13.466 1.254 3.303-.02 6.346.504 9.182.507 2.757 1.415 5.434 2.072 7.875 1.225.544 2.016.366 2.432-.292-.366-.54-.755-1.076-1.071-1.615-1.021-1.75-1.396-3.761.072-5.316 1.227-1.3 1.688-2.587 1.732-3.882l-.002-.47c-.045-1.094-.357-2.197-.733-3.321-.393-1.179-1.215-2.227-1.429-3.43-.163-.935.314-2.015.503-3.032-.487-.507-.976-1.013-1.465-1.519l.748-.549.969 1.861c.404-1.185.936-2.348 1.191-3.552.918-4.354 1.746-8.722 2.607-13.085.43-4.336.887-8.665 3.442-12.537l.017-.483c.028-.555.086-1.101.17-1.64-.23.405-.517.771-.778 1.156l-.817-.363c.158-.641.216-1.345.503-1.905.202-.392.842-.92 1.057-.813.173.087.294.188.374.299.443-1.733 1.131-3.394 1.922-5.026-1.3 2.083-1.42 1.99-2.822.655.184-1.635.912-.863 1.428-.945.554-.09 1.114-.112 1.671-.154l-.061.003c.059-.12.119-.238.179-.357.188-.565.374-1.13.67-1.627.03-.052.109-.075.215-.081l.603-1.125c1.095-2.049 2.386-3.937 3.074-6.269.7-2.362 2.382-4.339 5.021-4.934l.25-.71.06-.195c-1.37-1.736-1.294-1.968-.19-3.378l.538-.684-.425-.13c-1.165 2.535-1.396 2.685-2.89 1.804 4.13-5.395 9.534-9.696 12.184-16.435-2.349-1.365-3.103 2.296-5.275 1.77.053-.2.09-.409.125-.62-.674.198-1.454.285-2.37.234 1.172-2.235 1.172-2.235 5.641-5.017.025.03.053.062.084.093 2.256-2.44 4.76-4.596 7.51-6.458 2.972-2.016 5.95-4.032 8.967-6.073.377-.51.822-.877 1.45-.98l3.285-2.224c.02-.097.05-.185.095-.252.457-.698 1.029-1.173 1.879-1.084l.682-.461c-2.509-.775-4.08 1.476-6.114 1.605l-2.095.85c.6-.405 1.2-.809 1.8-1.217.806-1.789 2.1-2.906 3.908-3.499.89-.292 1.665-.974 2.493-1.48l1.415-.645-.389-.094c.061-.191.147-.55.181-.547.337.03.666.12.998.192l-.03.102.912-.415-3.122.111c.86-1.134 1.996-1.143 3.2-.878.617-2.797 3-3.44 5.004-4.373 5.07-2.357 10.389-4.177 15.276-6.887 4.509-2.499 9.03-3.289 13.877-2.567 1.379-.524 2.783-.958 4.147-1.258-.577.52-1.147 1.001-1.713 1.455 4.467-.89 8.937-1.766 13.395-2.698.825-.416 1.732-.836 2.75-1.357-1.05-.597-2.146-1.402-2.28-1.268-2.036 2.046-4.647 1.264-7.36 2.251.393-.96.46-1.694.844-1.969 1.6-1.137 3.292-2.134 5.234-3.365 2.69 1.298 5.395.64 8.367-.628 2.93-1.25 6.224-1.538 9.346-2.318.817-.204 1.584-.67 2.375-1.015l-.163-.02 2.99-.76-.167-.021c2.117-.463 4.355-.611 6.32-1.46 3.177-1.37 6.38.449 9.488-.96zM148.78 255.316c-.04-.043-.294.11-.45.172.068.173.099.381.22.504.045.045.294-.103.449-.165-.066-.176-.1-.38-.22-.51zm-3.345-.91c-.148-.007-.333.065-.444.167-.043.04.073.248.115.38l.463-.17c-.044-.134-.078-.373-.134-.377zm79.03-5.55c.416-.078.962-.34 1.21-.179.262.165.233.745.34 1.184-.297.244-.603.5-.908.757l-.641-1.761zm-104.015-1.464c-.133-.057-.52.088-.552.197-.1.348-.259.914-.096 1.051.718.604 1.512 1.138 2.349 1.574.191.1.664-.294 1.008-.461-.034-.38.078-.974-.125-1.101-.807-.506-1.699-.882-2.584-1.26zm111.674-2.927l.35.299-1.202 1.764c-.29-.174-.576-.35-.865-.524zm-148.784.588l.847.594-.992.293.145-.887zm129.33-1.605c.07-.105.788.357 1.206.558l-.693 1.49c-.456-.036-.915-.074-1.374-.116.271-.657.487-1.363.862-1.932zm-137.855-.015c.526.317 1.05.628 1.644.987-.433.385-.804.825-1.262 1.061-.183.096-.816-.305-.805-.423.057-.552.266-1.087.423-1.625zm92.186.494l-.403.35.534.092-.131-.442zm-109.14-7.714c4.053.39 4.053.39 8.265 6.28-.233.33-.608.984-.68.938-2.699-1.835-5.14-4.084-7.585-7.218zm137.086-1.256c-.083.04-.159.086-.243.123-2.862 1.254-5.737 2.475-8.616 3.687l-5.76 2.419c3.912-.32 7.828-.67 11.72-1.234 1.663-.242 3.304-1.005 4.883-1.71.438-.195.864-1.062.84-1.574-.026-.515-.536-1.304-.978-1.391-.58-.111-1.221-.253-1.846-.32zm-7.863 1.403c-.076.008-.152.016-.23.026-2.74.347-5.472.918-8.185 1.524-.493.11-.98.785-1.272 1.3-.148.268.147.761.297 1.39.47.14 1.008.43 1.56.56.386-.473.783-.923 1.269-1.195 2.18-1.217 4.371-2.41 6.561-3.605zm-156.445 2.497l.717.077-.418.823-.3-.9zm32.388-5.739c1.392.847 2.787 1.676 4.17 2.54 1.37.858 2.73 1.744 4.096 2.618-2.308-.597-4.641-1.091-6.885-1.929-.767-.284-1.264-1.6-1.381-3.229zm143.01-1.808c-1.449-.645-3.67.765-3.822 2.426-.017.193.067.479.209.573.417.28 1.078.257 1.752.044l.07-.598.55.35c.85-.41 1.601-1.081 1.755-1.77.04-.181-.08-.389-.117-.563-.14-.167-.231-.388-.397-.462zm7.867.86c-.599.166-1.121.277-1.611.474-.101.04-.14.58-.116.584.538.127 1.085.213 1.633.304l.094-1.363zm9.601-8.398c-1.465.627-2.932 1.25-4.394 1.885-.188.083-.381.14-.575.183-.726.62-1.494 1.205-2.301 1.764-1.412.978-1.648 2.92-.732 3.982.934 1.084 2.268 1.282 3.487.594.05-.028.098-.06.146-.088-.62-.658-.893-1.667-.388-2.651.964-1.882 2.52-3.406 3.986-4.902.253-.26.515-.51.771-.767zm-179.397 2.584l.808.662-.974.485.166-1.147zm26.113.351c.209.143.41.297.614.444l-.819-.175-.332-.22c.178-.012.357-.028.533-.045zm-48.963-3.904c.186 1.32.314 2.217.44 3.095-2.254-.568-3.033-1.376-.44-3.095zm15.587-18.567l6.55 20.63c-1.443-.946-2.236-1.226-2.648-1.782-1.308-1.773-2.56-3.6-3.66-5.505-.526-.914-.949-2.055-.922-3.08.083-3.191.401-6.373.68-10.263zm10.046 10.358c.393 2.08.786 4.162 1.181 6.241.632.192 1.3.393 2.798.845-1.623-2.952-2.22-5.371-3.979-7.086zm213.479-1.074c-.174.456-.258 1.026-.544 1.337-.303.325-.8.401-1.522.726.372-.846.496-1.469.828-1.78.292-.274.816-.202 1.238-.283zm-20.387-7.372c-.083.115-.172.227-.25.344-.536.785-1.459 1.737-2.595 2.75.545.013 1.078.024 1.587.021.09 0 .832-.065 1.245-.056l.012-.01c.153-.152.305-.306.456-.46.679-.693 1.334-1.41 1.964-2.148.103-.121.194-.251.295-.374-.705.112-1.455.126-2.278-.023-.16-.029-.291-.03-.436-.044zM51.7 207.638c.23.35.47.696.715 1.04l1.223.45c-.654-.488-1.299-.986-1.938-1.49zm209.972-2.268l1.622.689-.649 1.17c-.357-.207-.713-.405-1.068-.611.029-.415.062-.834.095-1.248zm-2.01-2.918c.077.388.155.775.234 1.16-.376.117-.744.232-1.12.346.297-.504.589-1.005.886-1.506zm-12.377-3.83c-.352.733-.651 1.588-1.013 2.721l1.657-.605c-.17-.68-.405-1.373-.644-2.116zm-215.576-3.67l1.354 4.971c-.36.064-.716.125-1.076.187-.331-1.658-.662-3.314-.99-4.971.236-.06.473-.124.712-.186zm230.266 2.59l-.672 1.01-.473-.84 1.145-.17zm.417-2.173l.696.855-1.306.375.61-1.23zm-212.719-6.108c.013.385.025.772.054 1.157.446.886.966 1.734 1.536 2.555-.098-.456-.19-.916-.252-1.401-.108-.86-.6-1.694-1.338-2.311zm212.763 1.132l.461.63-.923.238.462-.868zm-225.73-.607l-.037.46.465-.195-.428-.265zm-.756-6.401l-.07.012c-.304.108-.742.603-.7.852.165.933.5 1.832.772 2.745.428-.12.858-.238 1.286-.357-.153-.928-.254-1.872-.498-2.774-.067-.238-.633-.545-.86-.466zm-14.13-3.45l.337 1.154-.92-.142.583-1.013zm237.855-1.703c-.32-.023-.834-.189-.93-.044-.228.345-.377.752-.498 1.165-.026.152-.054.305-.085.457.126.105.61.315 1.181.63.127-.832.23-1.517.332-2.208zM15.498 160.913c.541.617 1.234 1.186 1.48 1.897 1.63 4.714 2.738 9.611 5.68 13.85.232.335-.142 1.551-.455 1.639-.735.206-1.786.235-2.372-.144-.681-.441-1.276-1.344-1.436-2.135-1.036-5.022-1.949-10.066-2.897-15.107zm20.375 4.055l.208.552c.138.37.275.742.423 1.108l.374.927c.15-.303.087-.734-.322-1.38-.247-.388-.464-.799-.685-1.21l.002.003zm-11.389-10.19c-.204-.236-.985-.316-1.099-.152-.443.637-1.07 1.438-1 2.108.256 2.544 1.276 5.106-.549 7.458.802.514 1.607 1.028 2.607 1.664 1.343-3.089-.375-6.369 1.282-9.107.17-.277-.717-1.377-1.24-1.971zm11.885 8.327c-.25.12-.664.194-.71.373-.073.292.001.625.048.952.221-.25.456-.488.635-.768.085-.128.022-.368.027-.557zm.246-4.927c-.262.166-.772.42-.751.48.149.458.403.877.625 1.304l.638-.802-.512-.982zm-4.175-9.404c-.002-.021-.515-.036-.52-.013-.133.957-.249 1.914-.32 2.877-.006.079.318.185.487.279.176-.085.505-.174.504-.256-.014-.964-.074-1.926-.15-2.887zm240.24-2.828c.08.192.165.386.24.58-.034.157-.075.316-.11.473-.07-.161-.12-.322-.194-.483.016-.19.045-.38.064-.57zM0 146.401l.485.028-.265.56-.22-.588zm31.862-4.322l.002 2.336c.391-.601.729-1.185 1.044-1.762-.39-.11-.754-.307-1.046-.574zm-2.492-15.097c-.092 1.54-.179 3.079-.247 4.619-.036.788.562 1.55.68 2.36.135.911.454 1.95.521 2.871l.075.044c-.468-2.637-.799-5.299-.956-7.97-.038-.64-.055-1.282-.073-1.924zm246.497-4.234c1.955 3.794 3.082 7.886 3.1 12.378-1.336-4.015-2.93-7.934-3.1-12.378zm-15.216-1.723c-.771.007-1.398.257-1.853.63 1.73 3.202 1.894 6.202 2.692 9.738.14.622.246 1.252.339 1.885.814-4.11.666-8.143-1.178-12.253zm11.632-4.466c.505 2.751 1.01 5.501 1.518 8.252-1.583-2.45-2.826-4.976-1.518-8.252zm-245.819 0c.124.969.251 1.936.4 3.095-2.685-1.02-2.685-1.02-.4-3.095zm247.834 1.421l1.072.718-.992.566-.08-1.284zm-16.046-2.859c-.16.34-.532.776-.439.992.187.443.625.768.96 1.142l.686-1.225c-.392-.295-.8-.601-1.207-.909zm-1.107-5.465c-.107.127-.289.246-.3.38-.01.148.136.307.214.462l.328-.38c-.081-.152-.16-.306-.242-.462zm-1.728-5.084c-.131-.053-.311.027-.467.049l.305.585.39-.256c-.074-.132-.122-.335-.228-.378zM41.422 84.945c-2.57 5.147-5.347 10.195-8.397 15.115l-.62-.069.619.07c-.004.276-.023.55-.035.826 1.994-4.204 4.466-8.108 7.036-11.965.075-.114.16-.222.247-.328.384-1.216.768-2.432 1.15-3.649zm208.7 10.24c-.074.308-.298.718-.186.892.135.212.55.226.85.325-.053-.341-.066-.693-.18-1.003-.045-.118-.316-.147-.484-.214zm23.679-2.35l2.607 2.603.492.491c-2.413-1.44-2.54-1.519-3.1-3.094zm-1.272-1.71c.06.119.131.235.199.352l.04-.044.056.219c.06.118.112.239.139.366.033.15.037.307.043.464l-.166-.469-.024.028c-.058.063-.144.157-.14.148-.004-.26 0-.516-.008-.772l.006.37-.1-.135.096-.11v-.015zm-1.149-5.51c.481.257 1.238.45 1.365.793.132.346-.358.84-.573 1.27-.492-.265-.98-.531-1.47-.798.226-.422.45-.844.678-1.266zM23.89 82.998l.321 1.104-.895-.16.575-.944zm6.696-4.077c.248-.194.746-.082 1.13-.1.069.404.143.814.215 1.218-.622 0-1.246.005-1.87.005.166-.386.236-.888.525-1.123zm9.058-1.357c.145.419.298.844.445 1.269-.389.136-.906.5-1.141.354-.29-.181-.351-.781-.513-1.2.405-.143.806-.283 1.21-.423zm-13.835.362l.409.918-.775.015.366-.933zm7.73-2.397c.533.225 1.063.456 1.59.681-.329.307-.662.613-.99.92-.361-.097-.716-.2-1.076-.297.16-.435.32-.868.476-1.304zm2.37-5.388c.412.08 1.198.192 1.187.232-.144.617-.392 1.222-.615 1.83l-1.253-.388c.223-.557.45-1.117.68-1.674zm.842-4.8c.298.196.59.392.889.582l-.486.765c-.138-.447-.27-.897-.403-1.347zm8.323-3.452c.123-.01.356.15.369.254.225 1.707-1.676 1.858-2.636 2.84-.29-.402-.483-.562-.439-.629.641-1.01.906-2.311 2.706-2.465zm-2.941-5.123c.198-.13.828.137 1.262.22-.483.605-.923 1.236-1.49 1.791-.088.086-.767-.17-1.61-.38.672-.621 1.177-1.197 1.838-1.63zm18.31-13.94l.003.991-1.04-.475 1.038-.515zm7.724-5.415c-.31.513-.622 1.027-.998 1.479-.103.122-.667-.186-1.019-.3.674-.391 1.345-.785 2.017-1.18l-1.007.59.069-.111.04.048zm2.772.357c-.39.264-.78.53-1.171.792l-.19-.239c.454-.183.909-.367 1.361-.553zm140.38-8.433c-.246.138-.49.273-.738.413.124.13.246.261.368.393.155-.083.4-.137.442-.255.057-.158-.04-.366-.073-.551zm-8.327-7.353c.488 3.294 1.667 4.064 5.52 4.304l-5.52-4.304zm-100.297.986c-.127.096-.316.168-.364.297-.025.064.06.174.136.28.047.018.094.034.142.05.17-.145.341-.291.51-.438l-.424-.189zm9.095-2.593c-1.339.125-2.547.067-3.678.447l-.51.207c-.53.253-1.046.625-1.552 1.192 2.37.524 3.93-.225 5.74-1.846zm7.4-9.03c.572.324 1.163.62 1.69 1.018.053.04-.292.682-.455 1.045-.543-.313-1.118-.579-1.588-.989-.096-.077.224-.7.354-1.074zm27.88-1.64c-.202-.364-1.107-.647-1.557-.488-.703.245-1.4.506-2.101.755 1.12-.186 2.258-.272 3.307-.05.141.03.28.045.421.067-.01-.11-.03-.211-.07-.285zm3.784-1.972c.61.738 1.05 1.386 1.41 1.89.574-.16 1.146-.346 1.721-.551.336-.12.672-.232 1.008-.333l-4.14-1.006zm36.712 1.252l-.556.595-.554-.595h1.11zm-18.12-1.35c1.418-1.935 2.94-1.85 5.167-.218-2.09 1.658-3.66.356-5.167.219zm-35.798-2.479c.568.205 1.152.376 1.691.67.06.037-.128.79-.198 1.21-.617.063-1.24.12-1.857.183.121-.69.241-1.377.364-2.063z" transform="translate(-937 -158) translate(936 158) translate(0 .5) translate(1.033)"/>
                        <path fill="#FEFEFE" d="M103.698 192.633c-.483.175-.302.877-.965 1.285-1.992 1.169-4.285 2.688-6.036 3.214-.422.174-.905.7-1.569 1.109l.423.468c.06 0 .12 0 .18-.058.061 0 .121-.059.303-.059-.966.35-2.656 1.518-3.26 1.518-.483 0-2.594-.35-3.139-.35-.482.117-.664.058-2.172-.467-.241-.175-1.086-.058-1.509-.526-2.414-2.103-4.044-4.673-5.069-7.301-1.026-2.63-1.328-6.427-1.328-8.94 0-5.197 1.811-12.032 6.639-16.063 2.716-2.162 7.725-5.55 9.475-5.55.966 0 1.57 1.169 2.234 1.403 1.992 1.051 4.707 3.855 5.673 5.55.603 1.109.603 2.51.362 2.51-.604-.116-.181 1.17-.362 1.578-.483.759-1.087 1.811-1.872 2.512-.965.934-3.44 2.98-3.982 2.98-.785 0-2.234-1.052-2.234-1.754 0-.408 1.75-3.154 1.57-4.497 0-.292.3-.584.3-.993 0-.467-.18-1.752-.36-2.746-2.958 2.045-4.346 4.557-5.613 6.834-1.932 3.33-3.32 7.245-3.863 10.457 0 .409-.423.994-.604 1.519-.12.467-.241 1.228-.362 2.278-.12.993-.181 1.636-.181 1.811 0 .468 0 1.87.181 2.746 0 .467 1.207 3.563 2.173 3.563.483 0 1.75-.642 2.534-.818 5.976-1.577 9.416-3.154 14.122-4.732-.24.467-1.266 1.11-1.689 1.52" transform="translate(-937 -158) translate(936 158) translate(0 .5) translate(1.033)"/>
                        <path fill="#FEFEFE" d="M120.2 184.139l-.233-.178c-.06-.058-.176-.118-.235-.296 0-1.654-.117-3.429-.293-5.262-5.092 2.78-7.55 8.81-9.249 12.595-.644 1.478-1.58 3.252-2.048 4.967-.41 1.833.059 3.548.117 5.499-.175 0-.527.414-.995.414-.468 0-.585-.533-.644-.355-.117.177-.117.355 0 .65-.644-.177-1.346-.059-1.522-.473-.176.178-.351.178-.586.356-1.696-2.307-2.224-3.43-2.224-5.323 0-4.671 2.342-16.674 2.81-19.69.176-.414-.117-.887-.117-1.3v-1.124c.468 0 .937-.296 1.346-.296.469 0 1.113 1.005 1.581 1.005.409 0-.06-.177.351-.177.469 0 .469.415.644.65 2.224.473 1.522 2.484 1.99 4.08 2.751-3.074 4.215-4.553 6.732-4.553.526 0 1.346.118 2.4.415 1.054.236 1.873.531 2.517.886.293.178.41.532.41 1.065 0 .59-2.108 4.256-2.752 6.445M132.758 181.324c-.175-1.135-.585-2.39-1.053-3.285-2.749 4.48-3.45 8.304-4.153 11.47-.175.776-.817 1.673-.876 2.09-.468 1.435-.76 4.78-.76 5.198-.059.539.233 1.494.468 2.21 2.398-.835 6.316-7.526 6.491-11.23 0-.478-.117-4.302-.117-6.453m3.334 15.473c-.234.24-.41.597-.527 1.016-.175 0-.351.06-.467.239-.468.897-1.814 2.33-3.217 2.987-1.403.477-3.86 1.134-4.329 1.134-.467 0-1.46-.298-1.929-.477-4.678-1.733-4.737-5.675-4.737-8.065.292-6.63 4.503-14.815 9.065-19.953.527-.537 2.28-.358 2.749-.358.467 0 .818.477 1.227.895-.409.478-.936 1.255-1.11 1.733.643.18 1.52.06 2.221.239 1.404.418 1.346 1.673 1.639 2.33.7 1.015 1.227 1.911 1.87 3.285.06.24 0 .837 0 1.255l.41.597c.292 1.195.526 4.003.526 4.422-.175 3.046-2.222 7.049-3.391 8.72M153.942 180.08c-.18-.24 0-.358-.18-.358-1.446 1.608-3.976 5.121-4.46 7.087-.179.416-.602 1.131-.782 1.786.06-.119.121-.178.121-.178l.06.06c-.904 1.964-1.386 2.917-2.47 6.312 4.88-6.432 7.77-11.733 9.278-15.604-.543.18-.904.476-1.567.894m5.964 6.372c-.18 1.49-.542 3.513-.963 5.36-.302 1.846-.662 4.05-.662 4.288 0 .417.24 2.62.541 3.87h-.06c-.06 0-.12.06-.241.18.361.417.843.773 1.506 1.13-.422 0-1.024.477-1.446.477-1.145 0-4.639-2.56-5.242-4.764-.662-1.965-.662-3.811-.662-4.525.06-.775.18-1.43.12-2.443-.783.774-1.325 2.025-2.229 2.8-.782.952-1.627 2.143-2.409 3.989-.18.18-.121 1.013-.362 1.43-.723 1.25-1.265 2.441-2.229 3.156-.423.417-1.446.774-1.928.774h-.904c-.301 0-.663-.654-1.084-.893-2.169-1.549-2.169-3.038-2.169-4.228 0-1.37.542-3.99 1.024-4.765.663-1.726 1.747-3.93 2.771-5.657 1.566-2.739 4.94-8.457 8.736-12.21.18-.178.603-.058 1.085-.058 1.686 0 3.494.655 5 1.131v.655c-.723 1.132-1.687 1.549-1.506 2.263.904-.178 2.169 0 3.374.18-.18.892.18 2.798.18 3.215 0 .357-.06 3.394-.241 4.645M181.67 178.2c-1.79.9-4.755 2.218-5.991 2.038-.432 0-2.409.36-2.84 1.078-.31.42-.928 3.177-1.236 4.615-.495 2.338-1.854 5.575-1.854 8.391 0 2.218.371 3.716 3.15 3.716 2.904 0 6.918-3.176 9.266-5.094-.247.48-.309 1.798-.865 2.517-.432.718-1.235 1.497-1.977 2.038 0 .18.247.299.247.478-.432.72-.616 1.559-.68 2.278-.432.18-.555.54-.801.72-.619.6-2.72 1.198-3.768 1.198-1.174 0-2.657-.54-3.953-1.318-.309-.3-.866-.96-1.545-1.378-.186-.24-.494 0-.926-.18-3.644-3.656-3.953-7.373-3.953-11.089 0-.239-.062-.478-.062-.958-.247-.42.68-6.113.74-6.533 0-.3-.122-.599-.431-.899-.247-.06-.37-.479-.433-1.198 0-.42-.74-.78-1.235-.96-.185-.479-.309-.659-.309-1.138 0-.96 1.112-.838 1.544-.838.495 0 .68.059 1.112.059.494 0 .618.12.803-.42 1.976-5.514 3.953-8.21 7.412-12.347 3.027 3.598 2.533 8.212 1.853 12.347 1.483.18 3.645.18 5.435.36 1.792.18 3.09.42 4.572.959-1.36.959-2.534 1.138-3.274 1.558" transform="translate(-937 -158) translate(936 158) translate(0 .5) translate(1.033)"/>
                        <path fill="#FEFEFE" d="M188.085 169.652c-.41-.064-1.348-.642-2.053-1.09.176-2.501 1.643-4.618 3.93-4.553.705 0 2.758.769 3.051 1.09.175.32.234.77.175 1.282 0 2.053-4.105 3.271-5.103 3.271zm2.64 29.564c0 1.346-2.288 3.078-2.873 2.95-.47 0-.353-.578-.823-.578-.469 0 0 .129-.469.129-.47-.064-1.407-1.026-1.819-1.026-.468-.065.119.192-.35.128-.236 0-1.702-2.18-2.23-3.334-.47-.706-.88-1.99-1.056-3.016-.293-1.281-.293-3.59-.293-4.103 0-.45.293-2.053.47-2.887.292-4.487 1.934-10.644 5.689-14.557 2.053.193 3.344 3.592 3.344 5.195 0 .514-3.871 16.738-3.871 17.315l-.119 3.848c.176.192.294.129.764.129 1.114 0 2.228-.77 3.695-1.54l-.059 1.347zM205.603 180.08c-.18-.24 0-.358-.18-.358-1.447 1.608-3.977 5.121-4.46 7.087-.18.416-.602 1.131-.783 1.786.06-.119.122-.178.122-.178l.059.06c-.904 1.964-1.385 2.917-2.47 6.312 4.88-6.432 7.771-11.733 9.279-15.604-.544.18-.904.476-1.567.894m5.963 6.372c-.18 1.49-.541 3.513-.963 5.36-.301 1.846-.662 4.05-.662 4.288 0 .417.24 2.62.542 3.87h-.06c-.061 0-.121.06-.242.18.362.417.844.773 1.507 1.13-.422 0-1.025.477-1.446.477-1.145 0-4.64-2.56-5.242-4.764-.662-1.965-.662-3.811-.662-4.525.06-.775.18-1.43.12-2.443-.783.774-1.325 2.025-2.23 2.8-.782.952-1.626 2.143-2.409 3.989-.18.18-.12 1.013-.362 1.43-.723 1.25-1.264 2.441-2.228 3.156-.423.417-1.446.774-1.929.774h-.903c-.302 0-.663-.654-1.085-.893-2.168-1.549-2.168-3.038-2.168-4.228 0-1.37.541-3.99 1.023-4.765.663-1.726 1.748-3.93 2.772-5.657 1.566-2.739 4.94-8.457 8.736-12.21.18-.178.602-.058 1.084-.058 1.687 0 3.494.655 5 1.131v.655c-.723 1.132-1.687 1.549-1.506 2.263.905-.178 2.17 0 3.374.18-.18.892.181 2.798.181 3.215 0 .357-.06 3.394-.242 4.645" transform="translate(-937 -158) translate(936 158) translate(0 .5) translate(1.033)"/>
                        <path fill="#00AEEF" d="M68.99 131.403c-.377-.192-.943-.866-1.462-1.01-.894-.338-2.214-.626-2.544-.626-1.273 0-2.357 1.06-2.357 1.876 0 .29 1.225 3.61 1.839 5.15.612 1.781 1.036 3.32 1.271 4.91 0 .336.99 1.972.99 2.694 0 .385 0 1.491-.376 2.118-.33.577-1.084 1.107-1.84 1.491-.563.385-1.695.53-2.026.53h-.894c-3.064 0-3.865-3.032-4.855-5.294-.235-.577-.943-1.444-.943-1.78 0-.722.801-1.637 1.792-2.6.894.386.33 1.107.33 1.685 0 .433-.095.818-.047 1.348 1.177 1.347 3.11 1.973 4.571 1.973.754 0 .754.096 1.65-.53 0-.24 0-.385-.048-.529-.942-1.347-5.514-10.54-5.514-13.764 0-2.358 1.838-4.234 4.241-4.234 2.404 0 6.457 2.598 6.457 5.822 0 .338-.094.627-.235.77" transform="translate(-937 -158) translate(936 158) translate(0 .5) translate(1.033)"/>
                        <path fill="#00AEEF" d="M84.111 131.843c-1.465.78-3.892 1.925-4.902 1.769-.354 0-1.97.312-2.325.936-.252.364-.758 2.76-1.01 4.008-.405 2.03-1.517 4.841-1.517 7.287 0 1.927.304 3.227 2.578 3.227 2.374 0 5.66-2.758 7.58-4.424-.202.416-.252 1.562-.707 2.186-.354.625-1.01 1.302-1.618 1.77 0 .156.202.26.202.416-.353.624-.505 1.353-.555 1.978-.354.156-.455.468-.657.625-.506.52-2.223 1.04-3.082 1.04-.962 0-2.174-.468-3.235-1.144-.253-.262-.709-.834-1.264-1.197-.152-.209-.404 0-.759-.156-2.98-3.176-3.234-6.403-3.234-9.63 0-.208-.05-.415-.05-.832-.202-.365.556-5.31.607-5.674 0-.26-.101-.52-.355-.78-.202-.052-.302-.417-.353-1.041 0-.364-.606-.677-1.01-.833-.153-.416-.253-.572-.253-.99 0-.832.91-.728 1.263-.728.405 0 .556.052.91.052.405 0 .505.105.657-.364 1.617-4.788 3.235-7.13 6.065-10.722 2.476 3.123 2.07 7.13 1.515 10.722 1.213.156 2.983.156 4.447.312 1.466.157 2.528.365 3.74.833-1.111.833-2.07.988-2.678 1.354" transform="translate(-937 -158) translate(936 158) translate(0 .5) translate(1.033)"/>
                        <path fill="#00AEEF" d="M94.946 131.777c-.153-.203 0-.304-.153-.304-1.23 1.37-3.38 4.363-3.79 6.037-.153.355-.511.964-.665 1.522.051-.101.102-.153.102-.153l.052.052c-.769 1.673-1.178 2.486-2.1 5.377 4.148-5.479 6.606-9.994 7.886-13.292-.461.152-.769.406-1.332.761m5.07 5.428c-.154 1.269-.461 2.993-.819 4.566-.256 1.573-.564 3.45-.564 3.653 0 .355.205 2.233.462 3.297h-.051c-.052 0-.103.051-.206.152.308.356.717.66 1.28.964-.358 0-.87.406-1.228.406-.973 0-3.944-2.18-4.455-4.058-.564-1.674-.564-3.247-.564-3.856.051-.66.153-1.217.103-2.08-.666.66-1.127 1.725-1.895 2.385-.666.812-1.382 1.826-2.048 3.4-.154.151-.103.861-.308 1.216-.614 1.065-1.076 2.08-1.894 2.689-.36.355-1.23.66-1.639.66h-.768c-.256 0-.563-.56-.922-.762-1.843-1.318-1.843-2.587-1.843-3.602 0-1.167.46-3.398.87-4.058.563-1.47 1.485-3.348 2.356-4.82 1.331-2.333 4.199-7.203 7.425-10.4.153-.151.513-.05.922-.05 1.433 0 2.97.558 4.25.964v.558c-.614.964-1.434 1.32-1.28 1.928.768-.152 1.844 0 2.868.152-.154.762.153 2.384.153 2.738 0 .305-.051 2.894-.205 3.958M120.635 134.304c-.95 3.977-1.568 8.368-2.566 11.519-.191.62-.095 1.55-.238 2.376-.19.62-.713 1.91-.904 2.892-.76 3.565-1.663 10.228-1.663 10.64 0 1.189.475 2.739.808 3.41v.568c-.143-.155-.095-.155-.475-.155-.238 0-.381.155-.381.517-2.804-1.446-4.182-5.63-4.182-8.265 0-1.394.047-3.202.285-5.114l.428-2.891c.19-.983.475-2.429.903-4.34.333-1.291.76-2.996 1.284-4.649.57-1.653 1.473-3.357 1.805-4.804l.095-.31c0 .414-.523.31-.76.672-1.094 2.22-2.567 4.648-3.946 7.077-.38.67-1.283 1.962-1.71 3.15-.76 1.55-1.76 3.617-3.28 3.617-.76 0-.475-.31-1.188-.93-.238-.207-.808-.207-1.142-.414-1.14-.981-1.52-4.184-1.52-5.373 0-4.751 2.139-11.932 4.135-15.496.476-.413 3.946.57 3.946 1.86 0 .361-.239.568-.381.723-1.14 4.804-3.137 14.102-3.137 14.566v.363h.094c2.52-3.564 6.133-8.885 8.414-13.38.523-1.135 1.996-3.718 2.282-3.718.38 0 1.758.36 2.377.413.046.258.474.516.617.93.333.568.238 1.652.238 2.015 0 .413-.095 1.755-.238 2.53M138.49 123.925c-.41-.048-1.348-.484-2.053-.824.176-1.893 1.642-3.495 3.931-3.446.705 0 2.757.582 3.05.825.176.243.235.582.176.97 0 1.554-4.106 2.475-5.103 2.475zm2.641 22.374c0 1.018-2.288 2.329-2.876 2.231-.468 0-.35-.436-.82-.436s0 .097-.47.097c-.468-.049-1.407-.777-1.817-.777-.47-.048.116.146-.353.098-.234 0-1.7-1.65-2.23-2.524-.468-.534-.878-1.504-1.055-2.28-.292-.971-.292-2.72-.292-3.107 0-.34.292-1.553.469-2.183.292-3.398 1.935-8.057 5.69-11.017 2.053.145 3.343 2.717 3.343 3.93 0 .389-3.871 12.667-3.871 13.104l-.118 2.911c.175.146.294.098.763.098 1.114 0 2.23-.582 3.695-1.165l-.058 1.02z" transform="translate(-937 -158) translate(936 158) translate(0 .5) translate(1.033)"/>
                        <path fill="#00AEEF" d="M159.042 148.148c-.461.4-1.024 1.298-1.484 1.698-.359.25-1.177.15-1.587.15-2.2 0-3.787-1.199-4.862-2.747-1.075-1.548-1.637-3.096-1.382-5.943 0-2.696 1.28-5.792 1.024-7.94-1.024 1.399-2.1 3.296-2.56 4.644l-.102.15c-.05.05 0 .1.154.1-.357.85-.307.55-.154.55-.46.948-1.074 2.148-1.944 4.344-.819 2.198-1.484 3.546-2.047 4.794-.153.6.563 1.25.051 1.898-.358-.15-.716.4-.87.75-.358.049-.512-.6-.92-.6-.36 0-.104.15-.513.15-.307 0-1.638-1.148-1.945-1.848-.511-.899-.41-3.296-.41-3.646 0-2.196.717-5.742 1.383-8.389.665-2.648 1.586-5.394 2.405-8.141.051-.15.051-.499-.103-.749.666-.15 1.587-.499 1.996-.499 1.178 0 2.456.35 2.456 1.548 0 .399-.46 4.245-1.023 6.642 1.177-1.998 2.56-4.645 4.248-6.592.256-.399 1.433-.399 1.792-.399.357 0 1.841.349 2.661.55.563.797 1.075 3.195 1.075 4.692 0 .3-.308 3.397-.564 5.095-.204.749-.664 1.598-.87 2.647-.153.65-.51 2.697-.664 3.546-.052.798-.206 1.548-.206 1.797 0 .8.206 1.798.972 1.798 1.332 0 5.118-1.997 7.165-3.097-.87.6-2.2 1.999-3.172 3.047" transform="translate(-937 -158) translate(936 158) translate(0 .5) translate(1.033)"/>
                        <path fill="#FEFEFE" d="M148.43 73.494c-.443-1.032-5.121-5.07-7.506-5.07-3.619 0-19.776.944-19.776 7.39 0 .689-.089 2.58.618 3.526 1.765 2.148 5.65 4.985 8.74 7.822.618.773 2.03 2.32 3.09 3.696 3.797 4.556 6.71 10.745 6.71 15.559 0 .6-.176 1.718-.441 2.406-.265 1.031-1.147 2.664-2.648 3.696-1.502 1.461-5.74 1.977-6.357 1.977-3.355 0-9.182-.86-11.301-1.977 0-.258-.176-.43-.53-.516-.706-.343-2.296-.945-3.443-2.32-.706-1.032-1.678-2.235-1.942-3.266-.266-.344-.354-.775-.619-1.032 1.06-1.547-1.676-5.073-2.471-8.51 1.323.773 8.74 4.9 11.565 4.9 2.207 0 6.446.257 9.182-.775v-.773c0-.602-6.356-6.876-10.418-11.002 0 .086 0 .086.088.171.088.087 0 .259.265.344.089 0 .089 0 .089-.085v-.172c-1.325-2.15-2.826-4.556-3.885-7.05-.353-.772-.707-2.149-1.06-3.18-1.588-5.243-1.588-3.868-1.588-7.908 0-.601 0-3.696.705-5.243 3.179-5.932 11.831-8.338 18.099-8.338 2.738 0 9.271 1.892 10.772 3.61 1.5 1.634 3.002 4.384 3.355 5.76.353.772.795 1.804 1.06 2.75 0 2.837-.354 3.353-.354 3.61" transform="translate(-937 -158) translate(936 158) translate(0 .5) translate(1.033)"/>
                        <path fill="#FEFEFE" d="M159.726 81.338c-.252-.336 0-.503-.252-.503-2.025 2.262-5.568 7.208-6.243 9.974-.252.587-.843 1.592-1.095 2.514.083-.168.168-.252.168-.252l.084.084c-1.265 2.766-1.94 4.107-3.458 8.885 6.832-9.053 10.88-16.513 12.989-21.96-.76.252-1.265.67-2.193 1.258m8.35 8.968c-.253 2.095-.76 4.944-1.35 7.543-.422 2.598-.928 5.7-.928 6.034 0 .588.338 3.689.76 5.448h-.085c-.084 0-.169.084-.337.252.506.586 1.18 1.09 2.11 1.592-.592 0-1.435.671-2.025.671-1.604 0-6.495-3.604-7.338-6.705-.929-2.766-.929-5.364-.929-6.37.085-1.09.254-2.011.17-3.437-1.097 1.09-1.856 2.85-3.122 3.94-1.096 1.34-2.277 3.017-3.373 5.615-.253.252-.168 1.426-.506 2.012-1.012 1.76-1.771 3.436-3.12 4.442-.591.587-2.025 1.09-2.7 1.09h-1.265c-.421 0-.927-.923-1.518-1.258-3.037-2.179-3.037-4.274-3.037-5.95 0-1.928.76-5.616 1.434-6.706.928-2.43 2.447-5.532 3.88-7.962 2.193-3.855 6.916-11.902 12.23-17.182.253-.251.844-.084 1.519-.084 2.36 0 4.89.922 7 1.592v.922c-1.012 1.593-2.362 2.18-2.11 3.185 1.266-.251 3.037 0 4.725.252-.254 1.258.252 3.939.252 4.526 0 .502-.084 4.777-.337 6.538M190.935 73.646c1.358-3.634 2.568-8.62 3.626-11.578.627-1.607 1.648-4.48 1.91-5.071.41-.93 3.139-6.17 4.485-8.282l.481-.34c.12-.083.203-.083.285-.083-.042 7.774-2.258 15.973-5.394 23.072-1.344 3.042-3.24 7.52-7.543 11.832.298-.676.328-.93.522-1.184-.24-2.45.982-6.338 1.628-8.366m19.435 13.002c-.335-.472-.43-.402-.697-.475-2.586-2.318-6.95-2.774-11.404-2.444-2.18.177-4.368.448-6.517.872-1.052.207-.706.029-.727-.031 3.825-4.708 10.226-12.946 11.392-16.502.328-.93 2.09-3.042 2.35-3.635.299-.676.266-1.352.52-2.112.35-1.352 1.65-3.55 1.955-4.986.546-3.297 1.174-6.593 1.939-9.635.068-.338-.243-.76-.274-1.436.502-2.451-.563-3.973-2.218-3.973-.662 0-2.854.845-4.523 1.437-6.174 2.366-10.906 8.958-12.87 12.846-1.034 1.775-3.642 6.93-3.903 7.522-.3.675-.94 2.873-1.648 4.479-2.435 5.783-4.142 12.633-5.34 19.511-.233.067-.465.135-.691.197-1.201.44-4.41 1.201-4.694 1.41-.33.246-.394.563-.278.929 1.532.818 3.252 1.37 4.983 1.717-1.403 9.625-1.885 18.883-2.04 24.885-.436 1.514-.868 3.179-1.23 4.775-.747 2.541-1.634 5.577-1.778 5.881-.253.532-1.886 3.2-3.014 4.613l.074.037c.075.037.113.15.19.375-.699.312-1.512.473-2.547.524.522.258.978 1.235 1.498 1.493 1.416.7 7.284-.435 9.363-2.88 2.01-2.106 3.127-4.464 3.56-5.376.394-1.025.642-1.936 1.328-3.193.193.563 1.286-4.95 2.495-8.073-.067-1.889.516-3.39.574-4.97-.142-.356.164-2.105.096-2.568.048-.191.083-.364.086-.496-.11-4.056.267-8.282 1.169-11.07-.146-.684.324-3.21.665-4.266 3.03-.83 8.419-2.42 8.422-2.49 4.436-.859 8.642-4.072 13.872-1.281.067-.41.126-.634.267-.74-.336-.472-.11-.458-.405-.871" transform="translate(-937 -158) translate(936 158) translate(0 .5) translate(1.033)"/>
                        <path fill="#FEFEFE" d="M209.515 94.838c3.454-4.688 6.91-10.131 7.169-15.238-3.542 5.107-5.7 10.215-7.17 15.238m3.024 17.584c-1.123.168-5.873-1.591-5.959-1.675-.605 0-.174-.167-.864-.084-2.678 0-5.96-6.781-5.96-7.452-.086-1.004-.345-2.512-.345-3.098 0-.753.345-3.85.605-5.61.69-2.594 2.072-5.442 3.54-8.707 0-.251 6.91-12.308 9.241-12.56.692 0 1.728.336 2.419.67 1.382.251 3.023 2.01 4.49 3.266.433.334 1.47.586 2.074 1.507.604.753 1.295 2.261 1.295 2.847 0 .67-1.122 4.27-2.072 5.61-4.923 7.033-6.563 10.298-12.178 14.233-.604.42-.69 2.763-.69 3.35l.086 3.265c7.169-1.34 13.041-6.363 19.086-10.047-.862 2.762-10.794 14.4-14.768 14.485" transform="translate(-937 -158) translate(936 158) translate(0 .5) translate(1.033)"/>
                    </g>
                </g>
            </g>
        </g>
    </g>
</svg>
